<svg width="144" height="290" viewBox="0 0 144 290" fill="none" xmlns="http://www.w3.org/2000/svg">
<path fill-rule="evenodd" clip-rule="evenodd" d="M-24 0H144V191H-24V0Z" fill="#4AF6CD"/>
<path d="M36.22 155.36C36.22 152.2 36.68 149.42 37.6 147.02C38.52 144.58 39.9 142.4 41.74 140.48L47.62 145.46C45.34 148.34 44.2 151.36 44.2 154.52C44.2 156.16 44.52 157.42 45.16 158.3C45.76 159.14 46.62 159.56 47.74 159.56C48.54 159.56 49.2 159.34 49.72 158.9C50.24 158.46 50.74 157.72 51.22 156.68C51.7 155.64 52.3 154 53.02 151.76C54.38 147.48 56.1 144.36 58.18 142.4C60.22 140.4 63.06 139.4 66.7 139.4C69.34 139.4 71.68 140.08 73.72 141.44C75.72 142.8 77.28 144.78 78.4 147.38C79.52 149.94 80.08 152.96 80.08 156.44C80.08 163.08 78.06 168.5 74.02 172.7L67.96 167.24C70.68 163.92 72.04 160.46 72.04 156.86C72.04 154.98 71.64 153.52 70.84 152.48C70 151.44 68.9 150.92 67.54 150.92C66.58 150.92 65.8 151.12 65.2 151.52C64.56 151.92 64 152.64 63.52 153.68C63 154.68 62.44 156.16 61.84 158.12C60.36 162.84 58.58 166.16 56.5 168.08C54.42 170 51.8 170.96 48.64 170.96C46.16 170.96 43.98 170.3 42.1 168.98C40.22 167.62 38.78 165.76 37.78 163.4C36.74 161 36.22 158.32 36.22 155.36ZM65.02 101.955C67.9 101.955 70.48 102.595 72.76 103.875C75.04 105.115 76.84 106.995 78.16 109.515C79.44 112.035 80.08 115.115 80.08 118.755C80.08 124.275 78.74 128.455 76.06 131.295C73.34 134.135 69.66 135.555 65.02 135.555H37.3V124.455H64.66C67.18 124.455 69.04 124.015 70.24 123.135C71.4 122.215 71.98 120.755 71.98 118.755C71.98 116.755 71.38 115.315 70.18 114.435C68.98 113.555 67.14 113.115 64.66 113.115H37.3V101.955H65.02ZM63.64 81.9477V85.0077H79V96.1077H37.3V81.6477C37.3 75.7677 38.36 71.3877 40.48 68.5077C42.6 65.5877 45.86 64.1277 50.26 64.1277C52.9 64.1277 55.1 64.7477 56.86 65.9877C58.62 67.1877 60.2 69.1277 61.6 71.8077L79 61.4277V73.7877L63.64 81.9477ZM56.08 85.0077V81.2877C56.08 77.4477 54.14 75.5277 50.26 75.5277C48.46 75.5277 47.14 76.0677 46.3 77.1477C45.46 78.1877 45.04 79.7677 45.04 81.8877V85.0077H56.08ZM79 58.9006H37.3V33.2806L45.16 34.4206V47.8006H55.18V36.0406H63.04V47.8006H79V58.9006Z" fill="white"/>
<path d="M36.22 267.92C36.22 262.36 37.98 257.58 41.5 253.58L47.2 259.04C46.12 260.56 45.34 261.94 44.86 263.18C44.34 264.38 44.08 265.76 44.08 267.32C44.08 270.32 45.24 272.68 47.56 274.4C49.88 276.08 53.42 276.92 58.18 276.92C61.66 276.92 64.42 276.64 66.46 276.08C68.46 275.52 69.9 274.68 70.78 273.56C71.66 272.4 72.1 270.92 72.1 269.12C72.1 267.32 71.72 265.68 70.96 264.2H62.38V268.94L54.76 270.02V253.46H75.52C76.96 255.62 78.08 258.06 78.88 260.78C79.68 263.5 80.08 266.18 80.08 268.82C80.08 281.86 72.76 288.38 58.12 288.38C53.56 288.38 49.64 287.5 46.36 285.74C43.04 283.94 40.52 281.5 38.8 278.42C37.08 275.34 36.22 271.84 36.22 267.92ZM36.22 230.335C36.22 224.295 38.14 219.595 41.98 216.235C45.82 212.875 51.2 211.195 58.12 211.195C62.64 211.195 66.56 211.955 69.88 213.475C73.16 214.955 75.68 217.135 77.44 220.015C79.2 222.895 80.08 226.335 80.08 230.335C80.08 236.375 78.16 241.075 74.32 244.435C70.48 247.755 65.08 249.415 58.12 249.415C53.6 249.415 49.7 248.675 46.42 247.195C43.14 245.675 40.62 243.495 38.86 240.655C37.1 237.775 36.22 234.335 36.22 230.335ZM44.2 230.335C44.2 232.935 45.28 234.855 47.44 236.095C49.6 237.295 53.16 237.895 58.12 237.895C63.08 237.895 66.66 237.275 68.86 236.035C71.02 234.795 72.1 232.895 72.1 230.335C72.1 227.695 71.02 225.775 68.86 224.575C66.7 223.375 63.12 222.775 58.12 222.775C53.16 222.775 49.6 223.375 47.44 224.575C45.28 225.775 44.2 227.695 44.2 230.335Z" fill="white"/>
<rect x="59" y="201" width="20" height="1" transform="rotate(-90 59 201)" fill="white"/>
</svg>
